<?xml version="1.0" encoding="UTF-8"?>
<!DOCTYPE svg PUBLIC "-//W3C//DTD SVG 1.1//EN" "http://www.w3.org/Graphics/SVG/1.1/DTD/svg11.dtd">
<svg xmlns="http://www.w3.org/2000/svg" version="1.1" width="934px" height="942px" style="shape-rendering:geometricPrecision; text-rendering:geometricPrecision; image-rendering:optimizeQuality; fill-rule:evenodd; clip-rule:evenodd" xmlns:xlink="http://www.w3.org/1999/xlink">
<g><path style="opacity:1" fill="#fdfdfd" d="M 453.5,2.5 C 464.822,1.78648 476.155,2.95314 487.5,6C 529.03,29.9255 570.03,54.5921 610.5,80C 647.623,100.059 683.957,121.392 719.5,144C 763.5,169.333 807.5,194.667 851.5,220C 864.822,229.157 874.988,240.99 882,255.5C 883.644,260.077 884.978,264.744 886,269.5C 886.171,298.405 886.671,327.239 887.5,356C 886.719,447.766 886.719,540.766 887.5,635C 888.913,662.163 879.58,684.83 859.5,703C 795.845,745.167 731.178,785.834 665.5,825C 611.143,860.333 556.476,895.333 501.5,930C 475.204,943.192 449.871,942.525 425.5,928C 389.004,904.249 352.004,881.249 314.5,859C 279.241,834.428 242.908,811.428 205.5,790C 163.012,762.178 120.012,735.178 76.5,709C 60.9177,697.753 50.4177,682.92 45,664.5C 44.8211,653.923 44.3211,643.423 43.5,633C 44.8333,519 44.8333,405 43.5,291C 40.6553,265.186 48.9886,243.852 68.5,227C 132.668,188.082 197.001,149.415 261.5,111C 285.005,97.4134 308.671,84.0801 332.5,71C 363.181,51.9945 393.847,32.9945 424.5,14C 434.021,9.56469 443.687,5.73136 453.5,2.5 Z"/></g>
<g><path style="opacity:1" fill="#030303" d="M 456.5,23.5 C 471.448,22.5227 485.448,25.6894 498.5,33C 612.669,100.585 727.002,167.919 841.5,235C 854.21,243.246 862.377,254.746 866,269.5C 866.667,399.5 866.667,529.5 866,659.5C 862.958,674.875 854.791,686.708 841.5,695C 737.328,759.249 633.662,824.249 530.5,890C 516.5,898.333 502.5,906.667 488.5,915C 469.688,923.07 451.355,922.07 433.5,912C 315.767,837.271 197.767,762.938 79.5,689C 68.7556,680.011 62.9223,668.511 62,654.5C 61.3333,527.5 61.3333,400.5 62,273.5C 64.2804,258.104 71.7804,245.937 84.5,237C 199.335,169.081 314.335,101.415 429.5,34C 438.064,28.9859 447.064,25.4859 456.5,23.5 Z"/></g>
<g><path style="opacity:1" fill="#fdfdfd" d="M 455.5,46.5 C 467.194,45.2721 478.194,47.4388 488.5,53C 521.167,72.3333 553.833,91.6667 586.5,111C 594.41,117.746 594.41,124.413 586.5,131C 577.817,137.174 568.484,142.007 558.5,145.5C 527.385,134.723 495.385,127.723 462.5,124.5C 430.034,127.158 398.534,134.158 368,145.5C 358.359,141.197 349.192,136.03 340.5,130C 334.69,123 335.357,116.666 342.5,111C 374.5,92 406.5,73 438.5,54C 444.032,50.8942 449.699,48.3942 455.5,46.5 Z"/></g>
<g><path style="opacity:1" fill="#d2d3cc" d="M 339.5,116.5 C 352.899,124.032 366.232,131.865 379.5,140C 373.307,144.069 366.973,144.403 360.5,141C 353.228,136.781 346.395,131.948 340,126.5C 338.265,123.21 338.099,119.877 339.5,116.5 Z"/></g>
<g><path style="opacity:1" fill="#d2d3cc" d="M 587.5,117.5 C 588.5,117.5 589.5,117.5 590.5,117.5C 591.462,122.74 589.795,126.907 585.5,130C 577.365,135.984 568.532,140.484 559,143.5C 554.864,143.344 551.031,142.177 547.5,140C 561.026,132.74 574.359,125.24 587.5,117.5 Z"/></g>
<g><path style="opacity:1" fill="#f3f3f2" d="M 322.5,169.5 C 321.262,169.19 321.262,168.69 322.5,168C 330.041,163.402 337.375,158.569 344.5,153.5C 335.209,146.848 325.542,140.681 315.5,135C 312.833,134.333 310.167,134.333 307.5,135C 296.5,141.5 285.5,148 274.5,154.5C 273.893,154.376 273.56,154.043 273.5,153.5C 284.972,146.929 296.305,140.096 307.5,133C 309.5,132.333 311.5,132.333 313.5,133C 323.737,138.234 333.737,143.9 343.5,150C 347.5,152.333 347.5,154.667 343.5,157C 336.472,161.178 329.472,165.345 322.5,169.5 Z"/></g>
<g><path style="opacity:1" fill="#d2d3cc" d="M 604.5,168.5 C 597.536,163.679 590.536,158.846 583.5,154C 588.717,149.942 594.05,146.108 599.5,142.5C 605.374,139.646 611.207,136.646 617,133.5C 618.811,134.078 620.645,134.578 622.5,135C 643.916,147.456 665.083,160.29 686,173.5C 686.944,176.347 686.444,178.847 684.5,181C 671.229,189.281 657.729,197.114 644,204.5C 641.501,203.917 639.501,202.584 638,200.5C 629.223,187.22 618.056,176.554 604.5,168.5 Z"/></g>
<g><path style="opacity:1" fill="#d3d3cd" d="M 322.5,169.5 C 309.318,178.85 298.318,190.35 289.5,204C 285.01,206.333 281.01,205.833 277.5,202.5C 278.738,202.19 278.738,201.69 277.5,201C 266.001,194.418 254.667,187.585 243.5,180.5C 241.68,176.429 242.68,173.262 246.5,171C 255.233,166.309 263.566,161.143 271.5,155.5C 271.833,154.5 272.5,153.833 273.5,153.5C 273.56,154.043 273.893,154.376 274.5,154.5C 285.5,148 296.5,141.5 307.5,135C 310.167,134.333 312.833,134.333 315.5,135C 325.542,140.681 335.209,146.848 344.5,153.5C 337.375,158.569 330.041,163.402 322.5,168C 321.262,168.69 321.262,169.19 322.5,169.5 Z"/></g>
<g><path style="opacity:1" fill="#fefefe" d="M 450.5,143.5 C 498.172,143.418 542.838,154.918 584.5,178C 605.914,189.675 620.08,207.175 627,230.5C 629.51,254.981 621.343,275.148 602.5,291C 577.459,309.694 549.459,322.027 518.5,328C 471.454,338.13 425.121,335.463 379.5,320C 360.219,313.528 342.552,304.195 326.5,292C 299.577,268.957 293.743,241.457 309,209.5C 324.223,189.277 343.723,174.444 367.5,165C 394.331,154.075 421.998,146.908 450.5,143.5 Z"/></g>
<g><path style="opacity:1" fill="#eebc15" d="M 459.5,157.5 C 464.849,156.461 469.349,157.795 473,161.5C 473.667,168.833 473.667,176.167 473,183.5C 467.333,188.833 461.667,188.833 456,183.5C 455.333,176.167 455.333,168.833 456,161.5C 456.69,159.65 457.856,158.316 459.5,157.5 Z"/></g>
<g><path style="opacity:1" fill="#f3f3f2" d="M 599.5,142.5 C 594.05,146.108 588.717,149.942 583.5,154C 590.536,158.846 597.536,163.679 604.5,168.5C 598.221,165.024 591.888,161.524 585.5,158C 580.167,155.333 580.167,152.667 585.5,150C 590.062,147.22 594.728,144.72 599.5,142.5 Z"/></g>
<g><path style="opacity:1" fill="#f3f3f2" d="M 604.5,168.5 C 618.056,176.554 629.223,187.22 638,200.5C 639.501,202.584 641.501,203.917 644,204.5C 657.729,197.114 671.229,189.281 684.5,181C 686.444,178.847 686.944,176.347 686,173.5C 665.083,160.29 643.916,147.456 622.5,135C 620.645,134.578 618.811,134.078 617,133.5C 611.207,136.646 605.374,139.646 599.5,142.5C 605.543,136.311 612.877,133.144 621.5,133C 644.083,145.872 666.25,159.372 688,173.5C 689.123,176.956 688.29,179.79 685.5,182C 673.5,189.333 661.5,196.667 649.5,204C 646.634,205.457 643.634,205.79 640.5,205C 630.305,190.972 618.305,178.805 604.5,168.5 Z"/></g>
<g><path style="opacity:1" fill="#eebc15" d="M 378.5,180.5 C 381.187,180.336 383.854,180.503 386.5,181C 393.94,185.442 401.106,190.275 408,195.5C 408.945,201.582 406.279,205.248 400,206.5C 390.699,202.683 382.365,197.349 375,190.5C 373.581,186.082 374.748,182.749 378.5,180.5 Z"/></g>
<g><path style="opacity:1" fill="#eebc15" d="M 542.5,180.5 C 550.661,179.171 554.495,182.505 554,190.5C 546.767,196.536 538.933,201.703 530.5,206C 526.048,206.86 522.548,205.36 520,201.5C 519.365,199.365 519.699,197.365 521,195.5C 528.07,190.247 535.236,185.247 542.5,180.5 Z"/></g>
<g><path style="opacity:1" fill="#f1f1f0" d="M 271.5,155.5 C 263.566,161.143 255.233,166.309 246.5,171C 242.68,173.262 241.68,176.429 243.5,180.5C 254.667,187.585 266.001,194.418 277.5,201C 278.738,201.69 278.738,202.19 277.5,202.5C 265.861,195.678 254.194,188.845 242.5,182C 239.302,176.995 240.302,172.995 245.5,170C 254.06,164.889 262.726,160.056 271.5,155.5 Z"/></g>
<g><path style="opacity:1" fill="#fefefe" d="M 838.5,260.5 C 836.983,260.489 835.816,259.823 835,258.5C 804.167,275.336 773.667,292.836 743.5,311C 736.501,315.836 729.168,316.503 721.5,313C 699.331,299.748 676.997,286.748 654.5,274C 651.577,271.955 648.743,269.788 646,267.5C 645.583,268.756 644.75,269.423 643.5,269.5C 649.506,256.798 651.506,243.464 649.5,229.5C 649.763,226.972 650.596,224.639 652,222.5C 669.417,211.874 686.917,201.374 704.5,191C 707.96,188.935 711.626,187.435 715.5,186.5C 718.702,187.099 721.702,188.266 724.5,190C 759.572,211.398 794.906,232.398 830.5,253C 833.713,255.05 836.379,257.55 838.5,260.5 Z"/></g>
<g><path style="opacity:1" fill="#eebc15" d="M 450.5,196.5 C 474.765,193.566 496.765,199.066 516.5,213C 529.363,225.255 530.863,238.755 521,253.5C 509.218,265.104 495.052,271.937 478.5,274C 453.962,277.43 431.629,272.096 411.5,258C 396.377,242.042 397.044,226.709 413.5,212C 424.734,204.045 437.068,198.878 450.5,196.5 Z"/></g>
<g><path style="opacity:1" fill="#eebc15" d="M 341.5,229.5 C 353.505,229.333 365.505,229.5 377.5,230C 383.225,235.417 382.558,239.75 375.5,243C 365.167,243.667 354.833,243.667 344.5,243C 338.941,241.542 337.108,238.042 339,232.5C 340.045,231.627 340.878,230.627 341.5,229.5 Z"/></g>
<g><path style="opacity:1" fill="#eebc15" d="M 550.5,229.5 C 563.171,229.333 575.838,229.5 588.5,230C 592.957,235.135 592.29,239.468 586.5,243C 575.5,243.667 564.5,243.667 553.5,243C 547.036,239.648 546.036,235.148 550.5,229.5 Z"/></g>
<g><path style="opacity:1" fill="#d3d3cd" d="M 272.5,290.5 C 256.557,300.478 240.224,309.978 223.5,319C 218.353,321.984 214.02,325.818 210.5,330.5C 210.19,329.262 209.69,329.262 209,330.5C 205.092,336.222 202.758,342.555 202,349.5C 201.667,372.833 201.333,396.167 201,419.5C 200.867,422.404 199.7,424.738 197.5,426.5C 195.143,426.663 192.81,426.497 190.5,426C 191.793,425.51 193.127,425.343 194.5,425.5C 194.667,398.831 194.5,372.165 194,345.5C 191.696,337.192 186.529,331.359 178.5,328C 147.459,309.813 116.125,292.146 84.5,275C 85.6622,268.174 88.9955,262.674 94.5,258.5C 125.704,276.866 157.037,295.033 188.5,313C 195.488,316.48 202.488,316.146 209.5,312C 232.335,298.081 255.335,284.415 278.5,271C 280.049,269.786 281.215,268.286 282,266.5C 287.028,277.409 283.861,284.909 272.5,289C 271.262,289.69 271.262,290.19 272.5,290.5 Z"/></g>
<g><path style="opacity:1" fill="#d3d3cd" d="M 838.5,260.5 C 839.973,263.447 841.473,266.447 843,269.5C 843.743,271.441 843.576,273.274 842.5,275C 809.167,294.333 775.833,313.667 742.5,333C 738.572,336.688 736.072,341.188 735,346.5C 734.5,373.165 734.333,399.831 734.5,426.5C 730.266,426.101 727.766,423.768 727,419.5C 726.667,395.167 726.333,370.833 726,346.5C 724.875,339.251 721.875,332.918 717,327.5C 716.601,327.728 716.435,328.062 716.5,328.5C 713.333,325.502 710,322.669 706.5,320C 687.167,309 667.833,298 648.5,287C 641.936,282.417 640.27,276.584 643.5,269.5C 644.75,269.423 645.583,268.756 646,267.5C 648.743,269.788 651.577,271.955 654.5,274C 676.997,286.748 699.331,299.748 721.5,313C 729.168,316.503 736.501,315.836 743.5,311C 773.667,292.836 804.167,275.336 835,258.5C 835.816,259.823 836.983,260.489 838.5,260.5 Z"/></g>
<g><path style="opacity:1" fill="#fefefe" d="M 838.5,260.5 C 842.061,263.253 844.228,266.92 845,271.5C 845.667,301.833 845.667,332.167 845,362.5C 843.558,366.275 841.058,369.108 837.5,371C 805.5,389.667 773.5,408.333 741.5,427C 735.013,429.888 729.847,428.388 726,422.5C 725.667,397.833 725.333,373.167 725,348.5C 724.005,341.005 721.172,334.338 716.5,328.5C 716.435,328.062 716.601,327.728 717,327.5C 721.875,332.918 724.875,339.251 726,346.5C 726.333,370.833 726.667,395.167 727,419.5C 727.766,423.768 730.266,426.101 734.5,426.5C 734.333,399.831 734.5,373.165 735,346.5C 736.072,341.188 738.572,336.688 742.5,333C 775.833,313.667 809.167,294.333 842.5,275C 843.576,273.274 843.743,271.441 843,269.5C 841.473,266.447 839.973,263.447 838.5,260.5 Z"/></g>
<g><path style="opacity:1" fill="#fefefe" d="M 272.5,290.5 C 271.262,290.19 271.262,289.69 272.5,289C 283.861,284.909 287.028,277.409 282,266.5C 281.215,268.286 280.049,269.786 278.5,271C 255.335,284.415 232.335,298.081 209.5,312C 202.488,316.146 195.488,316.48 188.5,313C 157.037,295.033 125.704,276.866 94.5,258.5C 88.9955,262.674 85.6622,268.174 84.5,275C 116.125,292.146 147.459,309.813 178.5,328C 186.529,331.359 191.696,337.192 194,345.5C 194.5,372.165 194.667,398.831 194.5,425.5C 193.127,425.343 191.793,425.51 190.5,426C 192.81,426.497 195.143,426.663 197.5,426.5C 193.554,429.138 189.554,428.971 185.5,426C 152.584,406.626 119.751,387.126 87,367.5C 85.5611,365.725 84.5611,363.725 84,361.5C 83.3333,331.167 83.3333,300.833 84,270.5C 87.007,263.159 91.8404,257.326 98.5,253C 135.833,231 173.167,209 210.5,187C 212.833,186.333 215.167,186.333 217.5,187C 235.5,197.667 253.5,208.333 271.5,219C 278.428,223.389 280.428,229.556 277.5,237.5C 278.287,243.506 279.12,249.506 280,255.5C 282.315,261.96 284.481,268.46 286.5,275C 284.832,282.836 280.165,288.003 272.5,290.5 Z"/></g>
<g><path style="opacity:1" fill="#eebc15" d="M 398.5,265.5 C 407.618,265.097 410.784,269.097 408,277.5C 400.431,282.73 392.598,287.563 384.5,292C 376.631,293.351 372.798,290.184 373,282.5C 381.169,276.178 389.669,270.511 398.5,265.5 Z"/></g>
<g><path style="opacity:1" fill="#eebc15" d="M 524.5,265.5 C 526.199,265.34 527.866,265.506 529.5,266C 538.596,270.628 547.096,276.128 555,282.5C 555.569,290.581 551.735,293.748 543.5,292C 535.33,287.083 527.33,281.916 519.5,276.5C 518.48,274.568 518.313,272.568 519,270.5C 520.73,268.598 522.563,266.931 524.5,265.5 Z"/></g>
<g><path style="opacity:1" fill="#eebc15" d="M 461.5,283.5 C 466.039,282.957 469.873,284.29 473,287.5C 473.667,295.167 473.667,302.833 473,310.5C 470.459,315.069 466.625,316.569 461.5,315C 459.152,314.654 457.319,313.487 456,311.5C 455.333,303.5 455.333,295.5 456,287.5C 457.812,286.023 459.645,284.69 461.5,283.5 Z"/></g>
<g><path style="opacity:1" fill="#d3d3cd" d="M 359.5,332.5 C 362.048,334.038 362.048,335.704 359.5,337.5C 359.103,336.475 358.437,336.308 357.5,337C 344.833,344.667 332.167,352.333 319.5,360C 314.699,363.799 310.199,367.966 306,372.5C 305.308,373.437 305.475,374.103 306.5,374.5C 303.903,378.034 301.57,381.7 299.5,385.5C 299.5,384.833 299.167,384.5 298.5,384.5C 299.693,381.948 301.027,379.448 302.5,377C 279.57,363.206 256.57,349.706 233.5,336.5C 244.272,328.938 255.605,322.105 267.5,316C 268.738,315.31 268.738,314.81 267.5,314.5C 268.29,313.599 269.29,312.932 270.5,312.5C 270.56,313.043 270.893,313.376 271.5,313.5C 281.141,307.764 290.975,302.43 301,297.5C 306.698,300.519 311.865,304.352 316.5,309C 329.969,318.402 344.303,326.235 359.5,332.5 Z"/></g>
<g><path style="opacity:1" fill="#f3f3f2" d="M 634.5,299.5 C 654.665,310.079 674.331,321.412 693.5,333.5C 685.439,329.634 677.439,325.468 669.5,321C 657.435,314.31 645.768,307.143 634.5,299.5 Z"/></g>
<g><path style="opacity:1" fill="#f3f3f2" d="M 359.5,332.5 C 344.303,326.235 329.969,318.402 316.5,309C 311.865,304.352 306.698,300.519 301,297.5C 290.975,302.43 281.141,307.764 271.5,313.5C 270.893,313.376 270.56,313.043 270.5,312.5C 279.473,307.345 288.473,302.178 297.5,297C 300.167,296.333 302.833,296.333 305.5,297C 311.921,303.425 318.921,309.091 326.5,314C 337.411,320.431 348.411,326.598 359.5,332.5 Z"/></g>
<g><path style="opacity:1" fill="#f5f5f4" d="M 613.5,306.5 C 613.938,306.435 614.272,306.601 614.5,307C 600.065,317.241 584.731,326.074 568.5,333.5C 568.207,335.023 568.207,336.357 568.5,337.5C 566.353,336.068 566.02,334.235 567.5,332C 583.722,324.909 599.055,316.409 613.5,306.5 Z"/></g>
<g><path style="opacity:1" fill="#a1a49c" d="M 233.5,336.5 C 256.57,349.706 279.57,363.206 302.5,377C 301.027,379.448 299.693,381.948 298.5,384.5C 296.684,388.284 295.684,392.284 295.5,396.5C 271.5,382.833 247.5,369.167 223.5,355.5C 223.953,347.591 227.287,341.258 233.5,336.5 Z"/></g>
<g><path style="opacity:1" fill="#e1e1df" d="M 210.5,330.5 C 207.473,335.065 205.306,340.065 204,345.5C 203.667,370.167 203.333,394.833 203,419.5C 202.568,423.072 200.735,425.405 197.5,426.5C 199.7,424.738 200.867,422.404 201,419.5C 201.333,396.167 201.667,372.833 202,349.5C 202.758,342.555 205.092,336.222 209,330.5C 209.69,329.262 210.19,329.262 210.5,330.5 Z"/></g>
<g><path style="opacity:1" fill="#e0e0de" d="M 267.5,314.5 C 268.738,314.81 268.738,315.31 267.5,316C 255.605,322.105 244.272,328.938 233.5,336.5C 227.287,341.258 223.953,347.591 223.5,355.5C 223.333,373.836 223.5,392.17 224,410.5C 224.471,412.246 225.138,413.913 226,415.5C 247.522,429.028 269.522,441.694 292,453.5C 293.107,453.415 294.107,453.081 295,452.5C 295.5,433.836 295.667,415.17 295.5,396.5C 295.684,392.284 296.684,388.284 298.5,384.5C 299.167,384.5 299.5,384.833 299.5,385.5C 299.108,387.179 298.608,388.846 298,390.5C 297.667,410.833 297.333,431.167 297,451.5C 295.971,454.875 293.804,456.042 290.5,455C 268.908,443.066 247.575,430.733 226.5,418C 224.959,416.421 223.792,414.587 223,412.5C 221.868,401.902 221.368,391.235 221.5,380.5C 221.667,370.833 221.833,361.167 222,351.5C 223.944,344.45 227.778,338.617 233.5,334C 244.698,327.235 256.031,320.735 267.5,314.5 Z"/></g>
<g><path style="opacity:1" fill="#f7f7f6" d="M 359.5,337.5 C 344.86,345.821 330.527,354.654 316.5,364C 312.963,367.369 309.629,370.869 306.5,374.5C 305.475,374.103 305.308,373.437 306,372.5C 310.199,367.966 314.699,363.799 319.5,360C 332.167,352.333 344.833,344.667 357.5,337C 358.437,336.308 359.103,336.475 359.5,337.5 Z"/></g>
<g><path style="opacity:1" fill="#d3d3cd" d="M 634.5,299.5 C 645.768,307.143 657.435,314.31 669.5,321C 677.439,325.468 685.439,329.634 693.5,333.5C 700.565,337.909 704.898,344.242 706.5,352.5C 705.668,371.329 705.168,390.329 705,409.5C 704.64,411.421 703.806,413.088 702.5,414.5C 702.624,415.107 702.957,415.44 703.5,415.5C 703.167,416.5 702.5,417.167 701.5,417.5C 701.44,416.957 701.107,416.624 700.5,416.5C 680.036,428.468 659.702,440.634 639.5,453C 637.421,453.808 635.421,453.641 633.5,452.5C 633.561,433.309 633.228,413.642 632.5,393.5C 633.222,393.918 633.722,394.584 634,395.5C 656.176,383.66 678.01,371.16 699.5,358C 701.025,356.991 702.692,356.491 704.5,356.5C 704.857,347.88 701.524,341.214 694.5,336.5C 671.5,349.667 648.5,362.833 625.5,376C 628.899,381.023 631.232,386.523 632.5,392.5C 631.833,392.5 631.5,392.833 631.5,393.5C 628.417,382.68 622.751,373.347 614.5,365.5C 614.938,365.565 615.272,365.399 615.5,365C 612.167,362.333 608.833,359.667 605.5,357C 594.177,351.34 583.177,345.173 572.5,338.5C 571.893,338.624 571.56,338.957 571.5,339.5C 570.29,339.068 569.29,338.401 568.5,337.5C 568.207,336.357 568.207,335.023 568.5,333.5C 584.731,326.074 600.065,317.241 614.5,307C 614.272,306.601 613.938,306.435 613.5,306.5C 616.974,303.198 620.641,300.032 624.5,297C 628.463,295.863 631.796,296.697 634.5,299.5 Z"/></g>
<g><path style="opacity:1" fill="#a1a49c" d="M 632.5,393.5 C 632.5,393.167 632.5,392.833 632.5,392.5C 631.232,386.523 628.899,381.023 625.5,376C 648.5,362.833 671.5,349.667 694.5,336.5C 701.524,341.214 704.857,347.88 704.5,356.5C 702.692,356.491 701.025,356.991 699.5,358C 678.01,371.16 656.176,383.66 634,395.5C 633.722,394.584 633.222,393.918 632.5,393.5 Z"/></g>
<g><path style="opacity:1" fill="#fbfbfb" d="M 706.5,352.5 C 706.667,372.169 706.5,391.836 706,411.5C 705.392,413.066 704.558,414.4 703.5,415.5C 702.957,415.44 702.624,415.107 702.5,414.5C 703.806,413.088 704.64,411.421 705,409.5C 705.168,390.329 705.668,371.329 706.5,352.5 Z"/></g>
<g><path style="opacity:1" fill="#f4f4f3" d="M 571.5,339.5 C 571.56,338.957 571.893,338.624 572.5,338.5C 583.177,345.173 594.177,351.34 605.5,357C 608.833,359.667 612.167,362.333 615.5,365C 615.272,365.399 614.938,365.565 614.5,365.5C 600.665,356.079 586.332,347.413 571.5,339.5 Z"/></g>
<g><path style="opacity:1" fill="#d2d3cc" d="M 223.5,355.5 C 247.5,369.167 271.5,382.833 295.5,396.5C 295.667,415.17 295.5,433.836 295,452.5C 294.107,453.081 293.107,453.415 292,453.5C 269.522,441.694 247.522,429.028 226,415.5C 225.138,413.913 224.471,412.246 224,410.5C 223.5,392.17 223.333,373.836 223.5,355.5 Z"/></g>
<g><path style="opacity:1" fill="#d2d2cc" d="M 611.5,394.5 C 612.167,394.5 612.5,394.833 612.5,395.5C 611.71,396.609 611.21,397.942 611,399.5C 610.667,399.167 610.333,398.833 610,398.5C 567.337,422.996 525.004,447.996 483,473.5C 479.607,477.619 477.274,482.286 476,487.5C 475.667,518.167 475.333,548.833 475,579.5C 468.353,583.058 461.519,583.391 454.5,580.5C 453.667,549.505 453.167,518.505 453,487.5C 451.559,480.066 447.726,474.232 441.5,470C 401.758,446.6 361.758,423.6 321.5,401C 320.207,400.51 318.873,400.343 317.5,400.5C 315.94,401.246 316.107,399.246 318,394.5C 320.295,388.9 323.795,384.234 328.5,380.5C 361.341,400.757 394.674,420.257 428.5,439C 436.638,445.126 445.304,450.46 454.5,455C 460.109,456.384 465.775,456.717 471.5,456C 514.828,431.338 557.828,406.171 600.5,380.5C 604.953,384.612 608.62,389.278 611.5,394.5 Z"/></g>
<g><path style="opacity:1" fill="#fcfcfc" d="M 86.5,388.5 C 88.1992,388.34 89.8659,388.506 91.5,389C 122.167,407 152.833,425 183.5,443C 189.723,446.223 194.223,451.057 197,457.5C 197.667,499.833 197.667,542.167 197,584.5C 196.252,588.914 193.752,590.414 189.5,589C 155.071,568.898 120.905,548.398 87,527.5C 85.7246,525.283 84.7246,522.949 84,520.5C 83.3333,477.5 83.3333,434.5 84,391.5C 85.045,390.627 85.8783,389.627 86.5,388.5 Z"/></g>
<g><path style="opacity:1" fill="#fcfcfc" d="M 836.5,389.5 C 839.685,389.02 842.519,389.686 845,391.5C 845.667,435.167 845.667,478.833 845,522.5C 844.333,523.833 843.667,525.167 843,526.5C 809.416,547.377 775.583,567.877 741.5,588C 738.135,590.157 734.968,589.991 732,587.5C 731.333,544.5 731.333,501.5 732,458.5C 733.811,452.037 737.644,447.204 743.5,444C 774.892,426.311 805.892,408.145 836.5,389.5 Z"/></g>
<g><path style="opacity:1" fill="#f9f9f8" d="M 632.5,392.5 C 632.5,392.833 632.5,393.167 632.5,393.5C 633.228,413.642 633.561,433.309 633.5,452.5C 635.421,453.641 637.421,453.808 639.5,453C 659.702,440.634 680.036,428.468 700.5,416.5C 701.107,416.624 701.44,416.957 701.5,417.5C 681.194,429.655 660.861,441.822 640.5,454C 637.46,456.155 634.627,455.988 632,453.5C 631.5,433.503 631.333,413.503 631.5,393.5C 631.5,392.833 631.833,392.5 632.5,392.5 Z"/></g>
<g><path style="opacity:1" fill="#fefefe" d="M 611.5,394.5 C 608.62,389.278 604.953,384.612 600.5,380.5C 557.828,406.171 514.828,431.338 471.5,456C 465.775,456.717 460.109,456.384 454.5,455C 445.304,450.46 436.638,445.126 428.5,439C 394.674,420.257 361.341,400.757 328.5,380.5C 323.795,384.234 320.295,388.9 318,394.5C 316.107,399.246 315.94,401.246 317.5,400.5C 318.873,400.343 320.207,400.51 321.5,401C 361.758,423.6 401.758,446.6 441.5,470C 447.726,474.232 451.559,480.066 453,487.5C 453.167,518.505 453.667,549.505 454.5,580.5C 461.519,583.391 468.353,583.058 475,579.5C 475.333,548.833 475.667,518.167 476,487.5C 477.274,482.286 479.607,477.619 483,473.5C 525.004,447.996 567.337,422.996 610,398.5C 610.333,398.833 610.667,399.167 611,399.5C 611.21,397.942 611.71,396.609 612.5,395.5C 613.06,397.801 613.56,400.134 614,402.5C 614.667,421.5 614.667,440.5 614,459.5C 610.327,486.699 597.161,507.866 574.5,523C 539.664,543.586 504.664,563.919 469.5,584C 464.761,584.726 460.095,584.393 455.5,583C 418.335,561.252 381.335,539.252 344.5,517C 326.57,501.64 316.737,482.14 315,458.5C 314.333,438.833 314.333,419.167 315,399.5C 317.756,389.16 323.59,380.994 332.5,375C 350.347,363.907 368.681,353.574 387.5,344C 391.833,343.333 396.167,343.333 400.5,344C 443.145,353.923 485.812,353.923 528.5,344C 532.833,343.333 537.167,343.333 541.5,344C 559.995,354.08 578.329,364.413 596.5,375C 599.949,377.482 603.116,380.315 606,383.5C 608.904,386.642 610.738,390.309 611.5,394.5 Z"/></g>
<g><path style="opacity:1" fill="#020202" d="M 808.5,481.5 C 809.641,478.36 809.808,475.027 809,471.5C 807.812,472.563 807.312,473.897 807.5,475.5C 803.268,496.16 799.101,516.827 795,537.5C 790.523,541.758 785.523,544.425 780,545.5C 775.936,530.386 771.603,515.386 767,500.5C 766.667,518.5 766.333,536.5 766,554.5C 759.754,559.596 752.921,563.596 745.5,566.5C 745.333,533.832 745.5,501.165 746,468.5C 746.667,467.167 747.333,465.833 748,464.5C 754.833,460.333 761.667,456.167 768.5,452C 770.65,450.41 772.983,449.743 775.5,450C 779.018,463.751 782.352,477.585 785.5,491.5C 789.431,473.249 792.931,454.916 796,436.5C 806.586,429.066 817.753,422.733 829.5,417.5C 829.667,451.168 829.5,484.835 829,518.5C 822.627,523.102 815.793,526.769 808.5,529.5C 808.5,513.5 808.5,497.5 808.5,481.5 Z"/></g>
<g><path style="opacity:1" fill="#010101" d="M 100.5,418.5 C 106.193,420.179 111.526,422.679 116.5,426C 122.437,429.217 127.937,433.051 133,437.5C 136.178,455.569 139.678,473.569 143.5,491.5C 146.395,478.861 149.228,466.195 152,453.5C 152.583,451.998 153.416,450.665 154.5,449.5C 163.749,454.707 172.915,460.04 182,465.5C 183.154,482.578 183.654,499.745 183.5,517C 183.167,533.5 182.833,550 182.5,566.5C 176.086,563.211 169.919,559.544 164,555.5C 163.667,536.5 163.333,517.5 163,498.5C 158.263,514.045 153.93,529.712 150,545.5C 148.132,546.672 146.298,546.505 144.5,545C 140.361,542.521 136.528,539.687 133,536.5C 129.253,515.101 125.253,493.768 121,472.5C 120.833,491.842 120.333,511.175 119.5,530.5C 113.28,527.766 107.447,524.433 102,520.5C 100.514,486.587 100.014,452.587 100.5,418.5 Z"/></g>
<g><path style="opacity:1" fill="#fcfcfb" d="M 210.5,431.5 C 215.287,430.97 219.62,432.137 223.5,435C 247.172,449.505 271.172,463.505 295.5,477C 303.188,483.228 307.522,491.061 308.5,500.5C 274.681,481.829 241.514,462.162 209,441.5C 208.037,437.851 208.537,434.518 210.5,431.5 Z"/></g>
<g><path style="opacity:1" fill="#fcfcfb" d="M 710.5,431.5 C 717.799,430.371 720.965,433.371 720,440.5C 718.64,442.105 717.14,443.605 715.5,445C 684.162,464.005 652.495,482.505 620.5,500.5C 621.623,491.423 625.623,483.59 632.5,477C 658.41,461.571 684.41,446.404 710.5,431.5 Z"/></g>
<g><path style="opacity:1" fill="#fdfdfd" d="M 214.5,465.5 C 218.105,465.799 221.439,466.965 224.5,469C 252.002,485.585 279.669,501.919 307.5,518C 313.061,520.562 316.894,524.728 319,530.5C 319.667,573.167 319.667,615.833 319,658.5C 317.971,661.875 315.804,663.042 312.5,662C 280.836,643.837 249.503,625.17 218.5,606C 215.056,602.889 212.889,599.056 212,594.5C 211.333,552.833 211.333,511.167 212,469.5C 212.662,468.016 213.496,466.683 214.5,465.5 Z"/></g>
<g><path style="opacity:1" fill="#fcfcfc" d="M 711.5,465.5 C 713.03,466.067 714.53,466.733 716,467.5C 716.984,511.559 716.651,555.559 715,599.5C 712.5,603.333 709.333,606.5 705.5,609C 674.966,627.432 644.299,645.599 613.5,663.5C 611.259,662.968 609.759,661.635 609,659.5C 608.333,617.5 608.333,575.5 609,533.5C 610.355,528.62 612.855,524.453 616.5,521C 648.262,502.46 679.929,483.96 711.5,465.5 Z"/></g>
<g><path style="opacity:1" fill="#5d5e5a" d="M 808.5,481.5 C 808.795,479.265 808.461,477.265 807.5,475.5C 807.312,473.897 807.812,472.563 809,471.5C 809.808,475.027 809.641,478.36 808.5,481.5 Z"/></g>
<g><path style="opacity:1" fill="#020202" d="M 253.5,510.5 C 254.873,510.343 256.207,510.51 257.5,511C 263.002,514.585 268.669,517.919 274.5,521C 276.049,522.214 277.215,523.714 278,525.5C 288.072,562.363 297.572,599.363 306.5,636.5C 298.272,633.968 290.772,629.968 284,624.5C 282.713,617.733 281.047,611.066 279,604.5C 270.921,598.541 262.421,593.208 253.5,588.5C 251.167,593.167 248.833,597.833 246.5,602.5C 239.7,599.358 233.533,595.358 228,590.5C 227.454,587.101 227.787,583.768 229,580.5C 236.88,557.025 245.046,533.692 253.5,510.5 Z"/></g>
<g><path style="opacity:1" fill="#020202" d="M 672.5,509.5 C 674.017,509.511 675.184,510.177 676,511.5C 685.696,537.588 694.363,563.921 702,590.5C 695.988,595.006 689.654,599.006 683,602.5C 682.228,602.355 681.561,602.022 681,601.5C 679.592,597.943 678.592,594.276 678,590.5C 677.612,589.572 676.945,588.905 676,588.5C 667.186,593.24 658.519,598.24 650,603.5C 648.176,610.464 646.509,617.464 645,624.5C 638.301,630.265 630.801,634.598 622.5,637.5C 630.836,599.992 640.003,562.659 650,525.5C 650.785,523.714 651.951,522.214 653.5,521C 660.004,517.303 666.338,513.47 672.5,509.5 Z"/></g>
<g><path style="opacity:1" fill="#fdfdfd" d="M 588.5,534.5 C 591.505,534.25 593.338,535.583 594,538.5C 594.667,582.5 594.667,626.5 594,670.5C 592.65,675.185 589.817,678.685 585.5,681C 551.001,701.415 516.667,722.082 482.5,743C 477.59,747.064 474.09,746.231 472,740.5C 471.333,696.5 471.333,652.5 472,608.5C 473.689,603.475 476.856,599.641 481.5,597C 517.558,576.645 553.225,555.811 588.5,534.5 Z"/></g>
<g><path style="opacity:1" fill="#fdfdfc" d="M 337.5,534.5 C 340.691,535.092 343.691,536.259 346.5,538C 381.572,559.398 416.906,580.398 452.5,601C 453.211,602.255 454.044,603.421 455,604.5C 456.152,627.772 456.652,651.106 456.5,674.5C 456.333,696.833 456.167,719.167 456,741.5C 454.334,744.379 451.834,745.212 448.5,744C 414.333,723.082 379.999,702.415 345.5,682C 339.673,678.842 336.173,674.008 335,667.5C 334.333,624.167 334.333,580.833 335,537.5C 336.045,536.627 336.878,535.627 337.5,534.5 Z"/></g>
<g><path style="opacity:1" fill="#f9f9f8" d="M 264.5,544.5 C 265.75,544.577 266.583,545.244 267,546.5C 269.736,556.943 272.236,567.443 274.5,578C 274.167,578.5 273.833,579 273.5,579.5C 268.027,575.86 262.694,572.027 257.5,568C 260.743,560.438 263.076,552.604 264.5,544.5 Z"/></g>
<g><path style="opacity:1" fill="#fefefe" d="M 86.5,546.5 C 90.1055,546.799 93.4388,547.965 96.5,550C 128.167,569 159.833,588 191.5,607C 194.164,609.669 195.998,612.836 197,616.5C 197.667,653.167 197.667,689.833 197,726.5C 196.252,730.914 193.752,732.414 189.5,731C 156.499,711.502 123.833,691.502 91.5,671C 88.1166,667.731 85.6166,663.897 84,659.5C 83.3333,622.833 83.3333,586.167 84,549.5C 85.045,548.627 85.8783,547.627 86.5,546.5 Z"/></g>
<g><path style="opacity:1" fill="#f5f5f5" d="M 662.5,546.5 C 665.52,553.206 668.186,560.206 670.5,567.5C 670.471,569.029 669.804,570.196 668.5,571C 663.747,573.458 659.247,576.292 655,579.5C 654.333,577.833 654.333,576.167 655,574.5C 657.505,565.143 660.005,555.81 662.5,546.5 Z"/></g>
<g><path style="opacity:1" fill="#fefefe" d="M 837.5,546.5 C 840.652,545.959 843.152,546.959 845,549.5C 845.667,586.167 845.667,622.833 845,659.5C 843.3,665.4 839.8,669.9 834.5,673C 803.167,692.333 771.833,711.667 740.5,731C 737.001,732.12 734.167,731.287 732,728.5C 731.333,690.833 731.333,653.167 732,615.5C 735.167,608.333 740.333,603.167 747.5,600C 777.728,582.392 807.728,564.559 837.5,546.5 Z"/></g>
<g><path style="opacity:1" fill="#010101" d="M 356.5,566.5 C 373.945,575.389 390.611,585.556 406.5,597C 429.896,620.281 438.062,648.114 431,680.5C 425.216,694.976 415.05,699.476 400.5,694C 385.253,685.796 370.42,676.963 356,667.5C 355.174,633.762 355.341,600.095 356.5,566.5 Z"/></g>
<g><path style="opacity:1" fill="#040404" d="M 567.5,567.5 C 569.017,567.511 570.184,568.177 571,569.5C 571.667,576.833 571.667,584.167 571,591.5C 558.965,599.032 546.798,606.365 534.5,613.5C 533.416,614.665 532.583,615.998 532,617.5C 531.171,622.137 530.671,626.804 530.5,631.5C 541.418,626.708 552.084,621.375 562.5,615.5C 563.442,615.608 564.275,615.941 565,616.5C 565.667,623.5 565.667,630.5 565,637.5C 564.07,639.552 562.57,641.052 560.5,642C 550.419,647.456 540.586,653.289 531,659.5C 530.667,671.167 530.333,682.833 530,694.5C 522.333,699.167 514.667,703.833 507,708.5C 506.667,708.167 506.333,707.833 506,707.5C 504.847,690.588 504.347,673.588 504.5,656.5C 504.354,639.103 504.854,621.77 506,604.5C 526.481,592.015 546.981,579.682 567.5,567.5 Z"/></g>
<g><path style="opacity:1" fill="#fdfdfd" d="M 381.5,605.5 C 394.323,611.098 402.49,620.765 406,634.5C 408.515,644.111 407.848,653.445 404,662.5C 397.74,667.668 391.24,667.835 384.5,663C 382.951,661.786 381.785,660.286 381,658.5C 380.182,640.76 380.348,623.093 381.5,605.5 Z"/></g>
<g><path style="opacity:1" fill="#fdfdfd" d="M 214.5,623.5 C 216.857,623.337 219.19,623.503 221.5,624C 251.167,641.667 280.833,659.333 310.5,677C 314.388,679.222 317.221,682.388 319,686.5C 319.667,726.5 319.667,766.5 319,806.5C 315.692,808.993 312.192,809.159 308.5,807C 279.167,789 249.833,771 220.5,753C 217.333,751.167 214.833,748.667 213,745.5C 211.351,706.56 211.018,667.56 212,628.5C 212.366,626.548 213.199,624.882 214.5,623.5 Z"/></g>
<g><path style="opacity:1" fill="#fcfcfc" d="M 708.5,623.5 C 711.365,623.055 713.865,623.722 716,625.5C 716.983,666.226 716.649,706.893 715,747.5C 682.923,769.127 650.09,789.627 616.5,809C 613.211,809.746 610.711,808.58 609,805.5C 608.333,767.167 608.333,728.833 609,690.5C 610.581,684.914 613.748,680.414 618.5,677C 648.728,659.392 678.728,641.559 708.5,623.5 Z"/></g>
<g><path style="opacity:1" fill="#2c8136" d="M 687.5,654.5 C 694.748,653.578 699.582,656.578 702,663.5C 704.057,673.547 703.724,683.547 701,693.5C 692.285,718.429 680.785,741.929 666.5,764C 664.167,764.667 661.833,764.667 659.5,764C 632.218,752.255 620.385,731.755 624,702.5C 626.898,692.936 632.731,685.77 641.5,681C 649.542,677.932 656.542,679.432 662.5,685.5C 666.897,671.791 675.231,661.458 687.5,654.5 Z"/></g>
<g><path style="opacity:1" fill="#58326f" d="M 235.5,655.5 C 242.208,655.013 247.875,657.179 252.5,662C 258.394,668.968 263.394,676.468 267.5,684.5C 279.144,676.618 289.311,678.285 298,689.5C 311.04,713.969 307.207,735.469 286.5,754C 280.99,758.168 274.99,761.502 268.5,764C 263.438,765.291 259.938,763.458 258,758.5C 245.57,737.973 235.57,716.306 228,693.5C 224.022,681.811 224.689,670.478 230,659.5C 231.812,658.023 233.645,656.69 235.5,655.5 Z"/></g>
<g><path style="opacity:1" fill="#fefefe" d="M 485.5,757.5 C 485.938,757.435 486.272,757.601 486.5,758C 478.69,764.746 469.69,767.746 459.5,767C 457.5,766.333 455.5,765.667 453.5,765C 415.646,742.468 377.813,719.968 340,697.5C 335.749,699.129 335.582,700.962 339.5,703C 377.265,725.77 414.765,748.937 452,772.5C 453.156,793.08 453.656,813.747 453.5,834.5C 453.497,854.738 453.164,874.905 452.5,895C 461.36,898.568 470.027,898.235 478.5,894C 477.975,893.308 477.308,892.808 476.5,892.5C 476.167,873 475.833,853.5 475.5,834C 475.35,813.438 475.85,792.938 477,772.5C 478.167,770 480,768.167 482.5,767C 518.998,745.919 555.331,724.586 591.5,703C 592.833,701.667 592.833,700.333 591.5,699C 589.833,698.333 588.167,698.333 586.5,699C 575.5,705.5 564.5,712 553.5,718.5C 552.893,718.376 552.56,718.043 552.5,717.5C 564.139,710.678 575.806,703.845 587.5,697C 589.441,696.257 591.274,696.424 593,697.5C 594.649,737.44 594.982,777.44 594,817.5C 593.562,820.376 592.562,823.043 591,825.5C 554.424,849.875 517.258,873.375 479.5,896C 464.022,900.698 449.689,898.365 436.5,889C 406.767,869.605 376.767,850.605 346.5,832C 340.797,828.632 336.963,823.799 335,817.5C 334.333,778.167 334.333,738.833 335,699.5C 336.864,696.793 339.364,695.959 342.5,697C 379.572,719.731 416.905,742.065 454.5,764C 460.08,765.517 465.747,765.851 471.5,765C 476.353,762.742 481.019,760.242 485.5,757.5 Z"/></g>
<g><path style="opacity:1" fill="#d2d2cd" d="M 485.5,757.5 C 486.29,756.599 487.29,755.932 488.5,755.5C 489.721,756.465 491.054,756.298 492.5,755C 511.833,743.333 531.167,731.667 550.5,720C 550.272,719.601 549.938,719.435 549.5,719.5C 550.29,718.599 551.29,717.932 552.5,717.5C 552.56,718.043 552.893,718.376 553.5,718.5C 564.5,712 575.5,705.5 586.5,699C 588.167,698.333 589.833,698.333 591.5,699C 592.833,700.333 592.833,701.667 591.5,703C 555.331,724.586 518.998,745.919 482.5,767C 480,768.167 478.167,770 477,772.5C 475.85,792.938 475.35,813.438 475.5,834C 475.833,853.5 476.167,873 476.5,892.5C 477.308,892.808 477.975,893.308 478.5,894C 470.027,898.235 461.36,898.568 452.5,895C 453.164,874.905 453.497,854.738 453.5,834.5C 453.656,813.747 453.156,793.08 452,772.5C 414.765,748.937 377.265,725.77 339.5,703C 335.582,700.962 335.749,699.129 340,697.5C 377.813,719.968 415.646,742.468 453.5,765C 455.5,765.667 457.5,766.333 459.5,767C 469.69,767.746 478.69,764.746 486.5,758C 486.272,757.601 485.938,757.435 485.5,757.5 Z"/></g>
<g><path style="opacity:1" fill="#f3f3f2" d="M 549.5,719.5 C 549.938,719.435 550.272,719.601 550.5,720C 531.167,731.667 511.833,743.333 492.5,755C 491.054,756.298 489.721,756.465 488.5,755.5C 508.669,743.248 529.002,731.248 549.5,719.5 Z"/></g>
</svg>
